<svg width="64" height="64" viewBox="0 0 64 64" fill="none" xmlns="http://www.w3.org/2000/svg">
<path fill-rule="evenodd" clip-rule="evenodd" d="M32 64C49.6731 64 64 49.6731 64 32C64 14.3269 49.6731 0 32 0C14.3269 0 0 14.3269 0 32C0 49.6731 14.3269 64 32 64Z" fill="#99C2E8"/>
<mask id="mask0" mask-type="alpha" maskUnits="userSpaceOnUse" x="0" y="0" width="64" height="64">
<path fill-rule="evenodd" clip-rule="evenodd" d="M32 64C49.6731 64 64 49.6731 64 32C64 14.3269 49.6731 0 32 0C14.3269 0 0 14.3269 0 32C0 49.6731 14.3269 64 32 64Z" fill="white"/>
</mask>
<g mask="url(#mask0)">
<path fill-rule="evenodd" clip-rule="evenodd" d="M43.8313 30.4421C42.7718 33.868 40.6975 36.7117 38.0391 38.452L38.1753 39.9776L38.1745 40.0397L36.7375 52.6154H27.6236L27.5857 52.3512L25.8238 40.018L25.8891 38.4755C23.2173 36.7398 21.1312 33.8914 20.0657 30.4564C20.0295 30.4598 19.9929 30.4615 19.9559 30.4615C19.2666 30.4615 18.7206 29.8614 18.7206 29.1343V25.0201C18.7206 24.5328 18.9659 24.1022 19.3353 23.8712C19.9115 16.1904 25.3251 10.1538 31.946 10.1538C38.5491 10.1538 43.9517 16.1579 44.5525 23.8089C44.9838 24.0178 45.2794 24.4845 45.2794 25.0201V29.1343C45.2794 29.8617 44.7341 30.4615 44.0441 30.4615C43.9714 30.4615 43.9003 30.4549 43.8313 30.4421Z" fill="#F1F1F1"/>
<path fill-rule="evenodd" clip-rule="evenodd" d="M37.7181 38.8777C37.6663 41.624 35.1261 44.4415 32 44.4415C28.8603 44.4415 26.3116 41.5994 26.2813 38.8419C24.6545 39.2527 22.1713 40.4917 20.1218 42.5623C18.137 44.5674 16.5588 47.5814 16.5588 49.9195V64H47.4412V49.9195C47.4412 47.5766 45.829 44.5575 43.8075 42.5501C41.786 40.5427 39.3553 39.3205 37.7181 38.8777Z" fill="#0C5EA8"/>
<path fill-rule="evenodd" clip-rule="evenodd" d="M26.1786 38.9372C24.6802 39.4792 22.1664 40.664 20.2647 42.4632C14.7059 41.2308 12.2353 38.3022 12.2353 38.3022C12.2353 38.3022 17.3567 33.3249 17.3598 24.6197V24.6105C17.3598 14.4172 22.8831 7.38461 31.9827 7.38461C41.0836 7.38461 46.6068 14.4172 46.6068 24.6105H46.6396C46.6396 33.3218 51.7647 38.3022 51.7647 38.3022C51.7647 38.3022 49.2941 41.2308 43.7353 42.4615L43.7269 42.4632C41.8901 40.7984 39.2262 39.5144 37.7769 38.9715L37.7785 38.9709L37.7209 38.3256L37.7521 38.2722C40.4867 36.5293 42.6087 33.5932 43.6316 30.0454C43.7569 30.1148 43.8983 30.1538 44.048 30.1538C44.5601 30.1538 44.9746 29.6984 44.9746 29.1343V25.0201C44.9746 24.5375 44.6712 24.1339 44.2628 24.0275C44.2624 24.0219 44.262 24.0163 44.2616 24.0108C31.3323 25.4482 26.6749 16.6159 26.2926 16.6154C26.2926 16.6154 21.9987 19.6923 19.9466 23.3506C19.9466 23.3506 19.6338 24.0411 19.6323 24.0644C19.2809 24.2091 19.0304 24.582 19.0304 25.0201V29.1343C19.0304 29.6984 19.4459 30.1538 19.9569 30.1538C20.0702 30.1538 20.1787 30.1316 20.279 30.0908C21.3132 33.6403 23.4486 36.5733 26.1961 38.3046L26.2063 38.3256L26.1804 38.9372H26.1786Z" fill="#C86151"/>
<path fill-rule="evenodd" clip-rule="evenodd" d="M27.5841 26.9976C26.786 27.062 26.5626 25.8029 26.8031 24.9807C26.8483 24.8249 27.1125 24.1154 27.5802 24.1154C28.0474 24.1154 28.2537 24.5032 28.2823 24.5699C28.626 25.3715 28.4572 26.9268 27.5841 26.9976Z" fill="#262626"/>
<path fill-rule="evenodd" clip-rule="evenodd" d="M36.8406 26.9976C37.6387 27.062 37.8621 25.8029 37.6216 24.9807C37.5764 24.8249 37.3122 24.1154 36.8444 24.1154C36.3773 24.1154 36.171 24.5032 36.1423 24.5699C35.7987 25.3715 35.9675 26.9268 36.8406 26.9976Z" fill="#262626"/>
<path d="M32.5082 28.2384C32.9854 28.157 33.3114 28.2081 33.4281 28.3669C33.8687 28.9672 33.7278 29.6023 32.9719 30.1237C32.5744 30.3977 32.0273 30.4942 31.7377 30.3521C31.5961 30.2826 31.4305 30.3536 31.3678 30.5106C31.3051 30.6676 31.3691 30.8512 31.5108 30.9206C31.9894 31.1555 32.7255 31.0257 33.2681 30.6517C34.2953 29.9431 34.5304 28.8837 33.863 27.9743C33.5806 27.59 33.0806 27.5116 32.4228 27.6239C32.2698 27.65 32.1648 27.8087 32.1883 27.9784C32.2119 28.1481 32.3551 28.2645 32.5082 28.2384Z" fill="#262626"/>
<path d="M35.9595 32.3642C35.9315 32.4234 35.8672 32.5367 35.7639 32.6859C35.589 32.9386 35.3695 33.1919 35.1027 33.4281C34.308 34.1319 33.2735 34.5389 31.9569 34.5017C30.6731 34.4654 29.6432 34.0647 28.8358 33.4185C28.5393 33.1813 28.2946 32.9272 28.099 32.6739C27.9836 32.5246 27.9116 32.4113 27.8801 32.3523C27.8043 32.2104 27.618 32.152 27.464 32.2218C27.3101 32.2917 27.2467 32.4633 27.3224 32.6053C27.3681 32.6908 27.4569 32.8304 27.5927 33.0062C27.8156 33.2948 28.0929 33.5826 28.4283 33.8511C29.3398 34.5805 30.5047 35.0338 31.9378 35.0743C33.4302 35.1165 34.6233 34.6471 35.5333 33.8412C35.8376 33.5717 36.0877 33.2832 36.2879 32.9941C36.4096 32.8182 36.4887 32.6787 36.5291 32.5934C36.5978 32.4484 36.5259 32.2796 36.3687 32.2163C36.2114 32.153 36.0282 32.2192 35.9595 32.3642Z" fill="#262626"/>
<path fill-rule="evenodd" clip-rule="evenodd" d="M25.0422 7.24779C27.1243 6.15709 29.4795 5.53846 31.9767 5.53846C34.625 5.53846 37.1151 6.23005 39.2869 7.44672V7.68711C43.2801 10.0165 45.9814 14.1966 46.1103 18.9937H46.9613C47.5649 18.9937 48.0588 19.4707 48.0588 20.0538V29.5496C48.0588 30.1327 47.5649 30.6098 46.9613 30.6098L46.4396 30.6098C45.4319 33.8706 40.6797 36.3544 34.9216 36.4349V36.7851C34.9216 37.1992 34.5711 37.5385 34.1424 37.5385H29.8116C29.3823 37.5385 29.0317 37.1992 29.0317 36.7851V35.1675C29.0317 34.7534 29.3823 34.4141 29.8116 34.4141H34.1424C34.5711 34.4141 34.9216 34.7534 34.9216 35.1675V35.7215C39.6098 35.2563 43.4622 33.2663 45.0786 30.6098H44.6029C43.9992 30.6098 43.5053 30.1327 43.5053 29.5496V20.0538C43.5053 19.4707 43.9992 18.9937 44.6029 18.9937H45.1532C44.556 15.1239 42.3643 11.7952 39.2869 9.73176V9.75597C37.1422 8.3809 34.645 7.58891 31.9767 7.58891C29.4627 7.58891 27.1004 8.29047 25.0422 9.52087V9.48889C21.7679 11.5282 19.4213 14.9682 18.8001 18.9937H19.3971C20.0008 18.9937 20.4947 19.4707 20.4947 20.0538V29.5496C20.4947 30.1327 20.0008 30.6098 19.3971 30.6098H17.0387C16.4351 30.6098 15.9412 30.1327 15.9412 29.5496V20.0538C15.9412 19.4707 16.4351 18.9937 17.0387 18.9937H17.8429C17.9758 14.0475 20.8432 9.75725 25.0422 7.47535V7.24779Z" fill="#262626"/>
<path fill-rule="evenodd" clip-rule="evenodd" d="M43.1651 58H32.8343C32.3733 58 32 57.621 32 57.153V51.5143C32 51.0463 32.3733 50.6667 32.8343 50.6667H43.1651C43.6261 50.6667 44 51.0463 44 51.5143V57.153C44 57.621 43.6261 58 43.1651 58Z" fill="white"/>
<path fill-rule="evenodd" clip-rule="evenodd" d="M38.6207 51.8307H37.5502C37.4709 51.8307 37.407 51.7671 37.407 51.6882V51.5086C37.407 51.4303 37.4709 51.3661 37.5502 51.3661H38.6207C38.7 51.3661 38.7639 51.4303 38.7639 51.5086V51.6882C38.7639 51.7671 38.7 51.8307 38.6207 51.8307Z" fill="#262626"/>
<path fill-rule="evenodd" clip-rule="evenodd" d="M37.7755 51.6667H38.3957V50H37.7755V51.6667Z" fill="#6A6A6A"/>
<path fill-rule="evenodd" clip-rule="evenodd" d="M38.1269 56.6651C36.839 56.6651 35.7947 55.6208 35.7947 54.3327C35.7947 53.0444 36.839 52 38.1269 52C39.4153 52 40.4597 53.0444 40.4597 54.3327C40.4597 55.6208 39.4153 56.6651 38.1269 56.6651Z" fill="#C30000"/>
<path fill-rule="evenodd" clip-rule="evenodd" d="M34.6667 55.3511L35.1434 54.1712H35.6015L35.1254 55.3511H34.6667Z" fill="#C30000"/>
<path fill-rule="evenodd" clip-rule="evenodd" d="M40.5495 55.3511L41.0202 54.1712H41.2699L40.7993 55.3511H40.5495Z" fill="#C30000"/>
<path fill-rule="evenodd" clip-rule="evenodd" d="M41.4751 55.3511L41.9457 54.1712H42.0783L41.6077 55.3511H41.4751Z" fill="#C30000"/>
<path fill-rule="evenodd" clip-rule="evenodd" d="M40.1165 54.1712H39.7018C39.7018 54.1712 39.6732 54.1712 39.6631 54.1964L39.4337 54.8989L39.2044 54.1964C39.1943 54.1712 39.1655 54.1712 39.1655 54.1712H38.3683C38.351 54.1712 38.3366 54.1856 38.3366 54.2028V54.4413C38.3366 54.2521 38.1352 54.1712 38.0173 54.1712C37.7533 54.1712 37.5765 54.3451 37.5215 54.6095C37.5185 54.4341 37.5039 54.3713 37.4567 54.3069C37.435 54.2754 37.4036 54.2489 37.3694 54.2269C37.2991 54.1857 37.2359 54.1712 37.1002 54.1712H36.9409C36.9409 54.1712 36.9121 54.1712 36.9019 54.1964L36.7569 54.5558V54.2028C36.7569 54.1856 36.7425 54.1712 36.7253 54.1712H36.3566C36.3566 54.1712 36.3281 54.1712 36.3177 54.1964L36.167 54.5701C36.167 54.5701 36.152 54.6074 36.1864 54.6074H36.3281V55.3194C36.3281 55.3371 36.342 55.3511 36.3598 55.3511H36.7253C36.7425 55.3511 36.7569 55.3371 36.7569 55.3194V54.6074H36.8994C36.9812 54.6074 36.9985 54.6097 37.0303 54.6245C37.0494 54.6317 37.0667 54.6464 37.0761 54.6633C37.0954 54.6995 37.1002 54.7431 37.1002 54.8716V55.3194C37.1002 55.3371 37.1144 55.3511 37.132 55.3511H37.4823C37.4823 55.3511 37.5219 55.3511 37.5376 55.312L37.6152 55.1201C37.7185 55.2647 37.8884 55.3511 38.0996 55.3511H38.1457C38.1457 55.3511 38.1856 55.3511 38.2013 55.312L38.3366 54.9771V55.3194C38.3366 55.3371 38.351 55.3511 38.3683 55.3511H38.7259C38.7259 55.3511 38.7654 55.3511 38.7812 55.312C38.7812 55.312 38.9243 54.9569 38.9248 54.9542H38.9251C38.9306 54.9246 38.8932 54.9246 38.8932 54.9246H38.7656V54.3153L39.1672 55.312C39.1829 55.3511 39.2224 55.3511 39.2224 55.3511H39.6449C39.6449 55.3511 39.6847 55.3511 39.7004 55.312L40.1457 54.2094C40.1611 54.1712 40.1165 54.1712 40.1165 54.1712ZM38.3366 54.9246H38.0963C38.0007 54.9246 37.9229 54.8472 37.9229 54.7515C37.9229 54.6559 38.0007 54.578 38.0963 54.578H38.1635C38.2589 54.578 38.3366 54.6559 38.3366 54.7515V54.9246Z" fill="white"/>
</g>
</svg>
